<svg xmlns="http://www.w3.org/2000/svg" width="129" height="23" viewBox="0 0 129 23" fill="none">
  <path d="M20.3123 4.73323L17.2383 19.1918C17.0064 20.2122 16.4016 20.4662 15.5421 19.9854L10.8584 16.5432L8.59832 18.711C8.34822 18.9605 8.13904 19.1691 7.65702 19.1691L7.99352 14.4116L16.6744 6.58817C17.0519 6.25256 16.5926 6.06661 16.0878 6.40222L5.35605 13.1417L0.73593 11.6995C-0.269037 11.3865 -0.287227 10.6972 0.945109 10.2164L19.0163 3.27286C19.853 2.95993 20.5852 3.45881 20.3123 4.73323Z" fill="#FFFDF5"/>
  <path d="M91.199 10.6992H90.1141V18.2256L85.361 13.3877L84.4505 14.3145L89.1195 19.0736H73.1038L77.6244 14.3145L76.6945 13.4008L72.0318 18.3111V6.92611L80.059 15.0573C80.301 15.3021 80.6284 15.4396 80.9696 15.4396C81.3108 15.4396 81.6382 15.3021 81.8802 15.0573L86.1812 10.6992H84.3536L80.9696 14.1239L72.8778 5.92697H82.4033L83.1459 4.6123H72.0318C71.6893 4.6123 71.3608 4.75081 71.1185 4.99736C70.8763 5.24391 70.7402 5.5783 70.7402 5.92697V19.0736C70.7402 19.4222 70.8763 19.7566 71.1185 20.0032C71.3608 20.2497 71.6893 20.3882 72.0318 20.3882H90.1141C90.4566 20.3882 90.7851 20.2497 91.0274 20.0032C91.2696 19.7566 91.4057 19.4222 91.4057 19.0736V10.686L91.199 10.6992Z" fill="#FFFDF5"/>
  <path d="M87.8581 1.18288L83.9179 7.98025C83.8425 8.1131 83.8031 8.26325 83.8037 8.41587C83.8043 8.5685 83.8449 8.71833 83.9214 8.85059C83.9979 8.98285 84.1077 9.09297 84.2399 9.17009C84.3722 9.2472 84.5224 9.28865 84.6757 9.29034H92.563C92.7162 9.28865 92.8664 9.2472 92.9987 9.17009C93.131 9.09297 93.2408 8.98285 93.3173 8.85059C93.3938 8.71833 93.4343 8.5685 93.4349 8.41587C93.4355 8.26325 93.3962 8.1131 93.3207 7.98025L89.3805 1.18288C89.3028 1.05054 89.1916 0.940764 89.0581 0.864476C88.9246 0.788188 88.7733 0.748047 88.6193 0.748047C88.4654 0.748047 88.3141 0.788188 88.1805 0.864476C88.047 0.940764 87.9358 1.05054 87.8581 1.18288Z" fill="#FFFDF5"/>
  <path d="M126.259 22.6544H110.981C110.278 22.6544 109.678 22.3969 109.181 21.8819C108.683 21.3669 108.435 20.7454 108.435 20.0176V4.19643C108.435 3.46854 108.683 2.8471 109.181 2.33209C109.678 1.81708 110.278 1.55957 110.981 1.55957H126.259C126.962 1.55957 127.562 1.81708 128.059 2.33209C128.556 2.8471 128.805 3.46854 128.805 4.19643V20.0176C128.805 20.7454 128.556 21.3669 128.059 21.8819C127.562 22.3969 126.962 22.6544 126.259 22.6544ZM114.8 9.47014V7.4925C114.8 7.12169 114.691 6.75775 114.472 6.40067C114.253 6.0436 114.011 5.78953 113.746 5.63846C113.481 5.48739 113.275 5.48052 113.129 5.61786L111.677 7.14229C111.279 7.5543 111.054 8.10707 111.001 8.80062C110.948 9.49417 111.05 10.2495 111.309 11.0667C111.568 11.8838 111.982 12.749 112.552 13.6623C113.123 14.5756 113.806 15.4443 114.601 16.2683C115.397 17.0923 116.236 17.7996 117.118 18.3901C118 18.9807 118.835 19.4133 119.624 19.688C120.413 19.9626 121.143 20.0725 121.813 20.0176C122.482 19.9626 123.016 19.7292 123.414 19.3171L124.886 17.7927C125.019 17.6554 125.012 17.4459 124.866 17.1644C124.72 16.8829 124.475 16.6288 124.13 16.4022C123.785 16.1756 123.434 16.0623 123.076 16.0623H121.166L119.873 16.8863C119.276 16.7215 118.54 16.2751 117.665 15.5473C116.79 14.8194 116.001 14.0022 115.298 13.0958C114.595 12.1894 114.164 11.4272 114.005 10.8092L114.8 9.47014ZM122.399 12.7662L123.692 12.9928C123.586 11.3448 122.97 9.93708 121.842 8.76972C120.715 7.60236 119.362 6.96375 117.784 6.85388L117.983 8.19291C119.137 8.34398 120.125 8.84526 120.947 9.69674C121.769 10.5482 122.254 11.5714 122.399 12.7662ZM118.222 9.57314L118.461 11.0564C118.978 11.3173 119.369 11.7225 119.634 12.2718L121.067 12.519C120.894 11.7911 120.553 11.1628 120.042 10.6341C119.532 10.1053 118.925 9.75168 118.222 9.57314ZM117.347 4.19643L117.565 5.53545C118.892 5.56292 120.115 5.92343 121.236 6.61698C122.356 7.31052 123.251 8.23754 123.921 9.39804C124.591 10.5585 124.939 11.8255 124.966 13.1988L126.259 13.4254C126.259 12.1757 126.023 10.9808 125.552 9.84094C125.082 8.70105 124.448 7.7191 123.653 6.89508C122.857 6.07106 121.909 5.41528 120.808 4.92774C119.707 4.4402 118.553 4.19643 117.347 4.19643Z" fill="#FFFDF5"/>
  <path d="M45.5553 7.75194C44.6097 7.75194 43.6854 8.03114 42.8992 8.55422C42.113 9.0773 41.5003 9.82077 41.1384 10.6906C40.7766 11.5605 40.6819 12.5176 40.8664 13.4411C41.0508 14.3645 41.5062 15.2127 42.1748 15.8785C42.8434 16.5442 43.6952 16.9976 44.6226 17.1813C45.55 17.365 46.5113 17.2707 47.3848 16.9104C48.2584 16.5501 49.0051 15.9399 49.5304 15.1571C50.0557 14.3743 50.3361 13.4539 50.3361 12.5124C50.3347 11.2503 49.8305 10.0403 48.9343 9.14781C48.038 8.25537 46.8228 7.75337 45.5553 7.75194ZM45.5553 16.0309C44.8564 16.0309 44.1732 15.8246 43.5921 15.4379C43.011 15.0513 42.5581 14.5018 42.2906 13.8589C42.0232 13.2159 41.9532 12.5085 42.0896 11.8259C42.2259 11.1434 42.5625 10.5164 43.0566 10.0244C43.5508 9.53227 44.1805 9.19716 44.8659 9.0614C45.5514 8.92563 46.2619 8.99531 46.9076 9.26163C47.5533 9.52794 48.1051 9.97892 48.4934 10.5575C48.8817 11.1362 49.0889 11.8165 49.0889 12.5124C49.0879 13.4452 48.7152 14.3396 48.0528 14.9992C47.3903 15.6588 46.4922 16.0299 45.5553 16.0309ZM50.1282 2.37061H40.9824C39.4944 2.3723 38.0679 2.96162 37.0158 4.00926C35.9637 5.0569 35.3718 6.47733 35.3701 7.95892V17.0658C35.3718 18.5474 35.9637 19.9678 37.0158 21.0155C38.0679 22.0631 39.4944 22.6524 40.9824 22.6541H50.1282C51.6162 22.6524 53.0427 22.0631 54.0948 21.0155C55.1469 19.9678 55.7388 18.5474 55.7405 17.0658V7.95892C55.7388 6.47733 55.1469 5.0569 54.0948 4.00926C53.0427 2.96162 51.6162 2.3723 50.1282 2.37061ZM54.4933 17.0658C54.492 18.2182 54.0317 19.3229 53.2134 20.1378C52.3951 20.9526 51.2855 21.411 50.1282 21.4123H40.9824C39.8251 21.411 38.7155 20.9526 37.8972 20.1378C37.0789 19.3229 36.6186 18.2182 36.6173 17.0658V7.95892C36.6186 6.80656 37.0789 5.70177 37.8972 4.88692C38.7155 4.07208 39.8251 3.61374 40.9824 3.61245H50.1282C51.2855 3.61374 52.3951 4.07208 53.2134 4.88692C54.0317 5.70177 54.492 6.80656 54.4933 7.95892V17.0658ZM51.999 7.13102C51.999 7.3357 51.938 7.53578 51.8238 7.70596C51.7096 7.87615 51.5473 8.00879 51.3574 8.08712C51.1675 8.16544 50.9585 8.18594 50.7569 8.14601C50.5553 8.10608 50.3701 8.00751 50.2248 7.86279C50.0794 7.71806 49.9805 7.53366 49.9404 7.33291C49.9003 7.13217 49.9208 6.92409 49.9995 6.73499C50.0782 6.54589 50.2114 6.38427 50.3823 6.27055C50.5532 6.15684 50.7541 6.09615 50.9597 6.09615C51.2352 6.09648 51.4994 6.20561 51.6942 6.39962C51.8891 6.59362 51.9987 6.85666 51.999 7.13102Z" fill="#FFFDF5"/>
</svg>